/* XPM */
static char *_ff12d8cc28246aab1fc111bf35f34cfHM7DvmJz0KEcJXfV[] = {
/* columns rows colors chars-per-pixel */
"64 64 256 2 ",
"   c #55524C",
".  c #445134",
"X  c #87837C",
"o  c #68635F",
"O  c #88837F",
"+  c #605A56",
"@  c #7B7571",
"#  c #4B6334",
"$  c #5E6350",
"%  c #506F33",
"&  c #5B5551",
"*  c #8A8480",
"=  c #424D33",
"-  c #5D5A52",
";  c #2C441C",
":  c #717265",
">  c #666959",
",  c #706A67",
"<  c #3B5521",
"1  c #7E7875",
"2  c #586447",
"3  c #324A1E",
"4  c #616951",
"5  c #6C735E",
"6  c #556543",
"7  c #354F20",
"8  c #4A6B2C",
"9  c #6C6763",
"0  c #4D603A",
"q  c #828274",
"w  c #606652",
"e  c #415A2C",
"r  c #717C5C",
"t  c #8C8682",
"y  c #657D42",
"u  c #5F694D",
"i  c #566245",
"p  c #656659",
"a  c #6C6A60",
"s  c #535D44",
"d  c #5E5855",
"f  c #5D6B49",
"g  c #3D5229",
"h  c #69695D",
"j  c #7C7673",
"k  c #385221",
"l  c #747F5A",
"z  c #4F6539",
"x  c #617E37",
"c  c #58564D",
"v  c #706C66",
"b  c #686D59",
"n  c #576644",
"m  c #484F3A",
"M  c #48533A",
"N  c #465C32",
"B  c #354D1E",
"V  c #747568",
"C  c #55693E",
"Z  c #6D6C61",
"A  c #426127",
"S  c #657052",
"D  c #615B57",
"F  c #365020",
"G  c #6B7A55",
"H  c #6E6864",
"J  c #5C664D",
"K  c #576743",
"L  c #4D583B",
"P  c #59584D",
"I  c #69655F",
"U  c #655F5B",
"Y  c #515544",
"T  c #67615D",
"R  c #384D26",
"E  c #335A1B",
"W  c #56584A",
"Q  c #827C79",
"!  c #3C5B26",
"~  c #646856",
"^  c #515146",
"/  c #405529",
"(  c #7E7E71",
")  c #606C4E",
"_  c #7B816A",
"`  c #464D38",
"'  c #5C664A",
"]  c #3D4F2D",
"[  c #7D816E",
"{  c #6F6D64",
"}  c #4B563B",
"|  c #466728",
" . c #547235",
".. c #5C614F",
"X. c #6F7262",
"o. c #63754B",
"O. c #66794B",
"+. c #495D35",
"@. c #85807C",
"#. c #666D57",
"$. c #686A5B",
"%. c #354626",
"&. c #5A6549",
"*. c #3D5525",
"=. c #586348",
"-. c #5B763C",
";. c #3E6125",
":. c #3F5B25",
">. c #5F6C4B",
",. c #6D7B58",
"<. c #5D7A36",
"1. c #687356",
"2. c #586A42",
"3. c #3A4F27",
"4. c #45612D",
"5. c #6F6C64",
"6. c #6A6C5D",
"7. c #6E6B64",
"8. c #5C6949",
"9. c #78776D",
"0. c #76766C",
"q. c #5B6947",
"w. c #626854",
"e. c #476828",
"r. c #5B6A46",
"t. c #8B8681",
"y. c #3B5126",
"u. c #3D5824",
"i. c #405C2B",
"p. c #43552E",
"a. c #5D5954",
"s. c #595F4B",
"d. c #4B4E40",
"f. c #5B5652",
"g. c #404F2F",
"h. c #3C5622",
"j. c #595A4B",
"k. c #5C6A47",
"l. c #394A29",
"z. c #5E5B53",
"x. c #4D553F",
"c. c #7C7871",
"v. c #455831",
"b. c #49672C",
"n. c #505642",
"m. c #4A543C",
"M. c #395523",
"N. c #716B67",
"B. c #354A22",
"V. c #3C4E29",
"C. c #6A675F",
"Z. c #5E793B",
"A. c #5A733F",
"S. c #354C23",
"D. c #40512F",
"F. c #334D20",
"G. c #40622B",
"H. c #3C651F",
"J. c #5A6945",
"K. c #5A594F",
"L. c #4C523E",
"P. c #2F5719",
"I. c #625C58",
"U. c #8E8884",
"Y. c #736D69",
"T. c #807A77",
"R. c #58534F",
"E. c #79736F",
"W. c #5A6A44",
"Q. c #756F6B",
"!. c #76706C",
"~. c #77716D",
"^. c #746E6A",
"/. c #78726E",
"(. c #726C68",
"). c #536343",
"_. c #837E7A",
"`. c #5F5955",
"'. c #5F5A56",
"]. c #6F6A66",
"[. c #717861",
"{. c #546343",
"}. c #726D68",
"|. c #646E51",
" X c #635D59",
".X c #7F7976",
"XX c #5A6A45",
"oX c #8D8783",
"OX c #5D5754",
"+X c #797370",
"@X c #7D7773",
"#X c #837D79",
"$X c #5B6A45",
"%X c #646B54",
"&X c #595450",
"*X c #426527",
"=X c #817C78",
"-X c #3C5128",
";X c #3F5D24",
":X c #545847",
">X c #67665C",
",X c #334B1F",
"<X c #747D60",
"1X c #6D6763",
"2X c #6F6965",
"3X c #596944",
"4X c #596746",
"5X c #485239",
"6X c #485435",
"7X c #404B32",
"8X c #375B1F",
"9X c #615C57",
"0X c #7A7C6C",
"qX c #645E5A",
"wX c #756F6C",
"eX c #626B51",
"rX c #7A7770",
"tX c #476131",
"yX c #5D5F4F",
"uX c #4F6D31",
"iX c #506838",
"pX c #747368",
"aX c #746E6B",
"sX c #736D68",
"dX c #577238",
"fX c #5E5E51",
"gX c #597635",
"hX c #4D702D",
"jX c #607643",
"kX c #51722D",
"lX c #2F451E",
"zX c #726C69",
"xX c #777A69",
"cX c #77716E",
"vX c #41602B",
"bX c #76706D",
"nX c #7E826F",
"mX c #505342",
"MX c #817B77",
"NX c #747865",
"BX c #777E65",
"VX c #334820",
"CX c #6C6C5F",
"ZX c #49632F",
"AX c #827F77",
"SX c #3B482D",
"DX c #3C4B2A",
"FX c #3C492D",
"GX c #5A5C4C",
"HX c #5C5B50",
"JX c #576942",
"KX c #716D66",
"LX c #5B6B46",
"PX c #3A5824",
"IX c #395F22",
"UX c #3B5E24",
/* pixels */
"E.E.E.E.E./.Q.^.Y.Y.Y.Y.Y.Y.Y.Y.Y.Y.Y.Y.Y.Y.^.~.~.^.Y.Y.Y.Y.Y.Y.Y.f e.b.KXY.E.E.E.E.E.E.Y.}.W.W.W.Z Y.~.Q.Y.Y.Y.Y.Y.Y.Y.Y.Q.E.E.",
"E.E.E.E.!.Y.Y.Y.Y.Y.Y.Y.Y.Y.Y.Y.Y.Y.Y.Y.Y.Y.Y.Y.Y.Y.Y.Y.Y.Y.v J iXe.e.C Y.Y.Q.E.E.E.E.E.Y.v 3XW.W.$.Y.Y.Y.v 4 k.k.k.r.W.v Y.E.E.",
"E.E.E.Q.Y.Y.' :.*.y.g / p.K.I.I.I.I.I.I.f.f.o Y.Y.o I.I.I.I.D g.F < u.;XiX6.Y.Q.E.E.E.E.Y.v K W.C 4Xw.f # 8XP.E z W.W.W.6.Y.Q.E.",
"/.E.Q.Y.KX0 k < F.3 3 ,X< :XI.I.I.I.I.I.d d qXY.Y.U I.I.I.I.I.D D.< < ,X,X4.Z Y.Q.E.E.Q.Y.Y.5 q nX . .x jX_ [ q q U.U.X 9.^.Y.^.",
"Q.~.Y.6.ZX7 B < ] . . g.k :XI.I.I.I.I.I.D D I.N.N.I.I.I.I.I.I.I.m.< < 3 ; ,XiX}.Y./.~.Y.^.@.U.U.U.A.BX<.r U.U.U.U.U.U.U.t..X!.Y.",
"Y.Q.Y.# h.3 R 7 W I.I.z.7 :XI.I.I.I.I.I.I.I.I.1X1XI.I.I.I.I.I.I.n.< M.L.` l.;X4XY.~.Q.Y.#XU.U.U.U.nXU.-.nXU.U.U.U.U.U.U.t T..X^.",
"Y.Q.Y.# k M P S.9XI.I.I.] :XI.I.I.I.I.I.I.I.I.o o I.I.I.I.I.I.I.W < k - R.m h.z Y.!.Y.!.U.U.U.U.U.U.U.o.t.U.U.U.U.U.U.U.t T.T.+X",
"Y.^.Y.# y.I.I.m.I.I.I.I.x.Y I.I.I.I.I.I.I.I.I.qXqXI.I.I.I.I.I.I.- M.y.+ R.m k 6 Y.!.Y.@XU.U.U.U.U.U.U._ U.U.U.U.U.U.U.U.t T.T.@X",
"Y.Y.Y.0 . I.I.9XI.I.I.I.z.Y I.I.I.I.I.I.I.I.I.I.I.I.I.I.I.I.I.I.9Xk . + R.m k n Y.!.Y.T.U.U.U.U.U.U.U.U.U.U.U.U.U.U.U.U.t T.T.1 ",
"Y.Y.Y.0 n.I.I.I.I.I.I.I.I.- I.I.I.I.I.I.I.I.I.I.I.I.I.I.I.I.I.I.I.g x.+ R.m k 4XY.!.Y.T.U.U.U.U.U.U.U.U.U.U.U.U.U.U.U.U.t T.T.1 ",
"Y.Y.Y.0 K.I.I.I.I.I.I.I.I.I.I.I.I.I.I.I.I.I.I.I.I.I.I.I.I.I.I.I.I.D.W + R.` k J Y.!.Y.T.U.U.U.U.U.U.U.U.U.U.U.U.U.U.U.U.t T.T.1 ",
"Y.Y.Y.i I.I.I.I.I.I.I.I.I.I.I.I.I.I.I.I.I.I.I.I.I.I.I.I.I.I.I.I.I.. D `.R.` k w Y.!.Y.T.U.U.U.U.U.U.U.U.U.U.U.U.U.U.U.U.t.T.T.1 ",
"Y.Y.Y.p I.I.I.I.I.I.I.I.I.I.I.I.I.I.I.I.I.I.I.I.I.I.I.I.I.I.I.I.I.:XI.d R.` k w.Y.!.Y.T.U.U.U.U.U.U.U.U.U.U.U.U.U.U.U.U.O T.T.1 ",
"Y.Y.Y.2XI.I.I.I.I.I.I.I.I.I.I.I.I.I.I.I.I.I.I.I.I.I.I.I.I.I.z.I.I.D I.f.R.` k > Y.!.Y..XU.U.U.U.U.U.U.U.U.U.U.U.U.U.U.oXQ T.T.1 ",
"Y.Y.Y.2XI.I.I.I.I.I.I.I.I.I.I.I.I.9Xm.z.I.I.HXj.I.I.I.I.I.I.L I.I.I.+ R.R.` 7 $.Y.!.Y.9.U.U.U.U.U.U.U.U.U.U.U.U.U.U.U.@.T.T.T.1 ",
"Y.Q.Y.N.I.I.I.I.I.I.I.I.I.I.I.I.I.I.. < L z.v.*.HXI.I.I.I.z./ I.I.+ R.R.R.  R a Y.~.Y.: oXU.U.U.U.U.U.U.U.U.U.U.U.t._.T.T.T.T.@ ",
"Y.!.^.Y.I.+ D D D D D D D D D D D D Y F < < < < / z.D D D :XM.a.f.R.R.R.R.R.s v Y./.Y.N.0.#X_._._._._._._._._.#X=XT.T.T.T.T.T.Q.",
"^.E.!.Y.9 R.R.R.R.R.R.R.R.R.R.R.R.R.  lXlX3 3 B B V.. m L.g.B ^ R.R.R.R.R.a.v Y.Y.Y.Y.(.> rXT.T.T.T.T.T.T.T.T.T.T.T.T.T.T.T./.Y.",
"/./.Q.Y.Y.I &XR.R.R.R.R.R.R.R.R.R.R.R.SX; ; ; ; ; ; ; ; ; ; ; m R.R.R.R.d , Y.Y.5.$.Y.Y.H w X.T.T.T.T.T.T.T.T.T.T.T.T.T.@XbXY.Y.",
"Y.Y.Y.KXb >.4Xs.P c c c c c c c f.f.f.& ^ m l.lX; ; ; ; ; ; ; = c c a.U 1X(.Y.v 2 {.$.Y., 9 I w J 4 eX|.|.|.|.|.|.|.b aXY.Y.^.Q.",
"}.6.eXXXW.W.W.2.W.W.W.W.W.W.W.' , Y.Y.Y.Y.].>X{.3XW.W.W.W.W.W.XXw 9 9 ].Y.Y.Y.Y.a a Y.Q.Y.2X9 9 I w $XW.3XK n W.W.W.XX{ Y.Y.Y.Y.",
"r.W.W.W.W.W.C H.vXn K 3XW.W.W.4 (.Y.^.^.Y.N.9 >Xr.W.W.W.3X3XW.r.9 H (.Y.Y.Y.b C 9 9 , Y.Y.Y.(.2X9 9 w.6 ).).3XW.W.W.W.f ) eX#.%X",
"[.[.[.[.[.5 G.;.IXf X.5 u 6 W.4 Y.Q.E.E.Q.Y.N.1Xf W.6 i i i 2 q.h N.N.N.N.> | | K 2XN.N.N.N.Y.Y.(.p {.).i w w.W.W.W.S [.[.[.[.[.",
"U.U.U.U.U.oXG % O.U.U.U.oXV 8.XX{ Y.E.E.E.Q.Y.(.q...9XI.K.m.V.R R R 3./ / h.k F F -X-X-X-X/ p.U p {.J p 9 9 u W.>.( U.U.U.U.U.U.",
"U.U.U.U.U.U.U.nXoXU.U.U.U.#XrXf eXY.Q.E.E.Q.Y.7.9XI.I.I.I.I.D :X. S.3 B < < 7 3 3 3 3 3 3 7 / `.&XI 9 9 1Xa W.>.X U.U.U.U.U.U.U.",
"U.U.U.U.U.U.U.U.U.U.U.U.U.#XT.: W.Z Y./.E.Y.Y.U I.I.I.I.I.I.I.I.I.D :X] k < D.M M M M M M S.p.+ R.& H N.Y.%XW.0XU.U.U.U.U.U.U.U.",
"U.U.U.U.U.U.U.U.U.U.U.U.U.#XT.T.J.>.Y.Q.~.Y.H I.I.I.I.I.I.I.I.I.I.I.I.P 7 < n.I.I.I.I.I.I.M g.+ R.R.o Y.v 3XLXU.U.U.U.U.U.U.U.U.",
"U.U.U.U.U.U.U.U.U.U.U.U.U.=XT.T.u W.5.Y.!.Y.I I.I.I.I.I.I.I.I.I.I.I.I.I.3.< W I.I.I.I.I.I.z.. + R.R.9XY.v n S U.U.U.U.U.U.U.U.U.",
"U.U.U.U.U.U.U.U.U.U.U.U.t T.T.T.w.K 6.Y.Q.Y.o I.I.I.I.I.I.I.I.I.I.I.I.I.m.k K.I.d I.I.I.I.I.K.`.R.R.`.Y.Y.&.S U.U.U.U.U.U.U.U.U.",
"U.U.U.U.U.U.U.U.U.U.U.U.@.T.T.T.7.{.$.Y.Q.Y.o I.I.I.I.I.I.I.I.I.I.I.I.I.HXF.D I.f.`.I.I.I.I.I.OXR.R.`.Y.(.w S U.U.U.U.U.U.U.U.U.",
"U.U.U.U.U.U.U.U.U.U.U.@.T.T.T.T., w w.Y.Q.Y.o I.I.I.I.I.I.I.I.I.I.I.I.I.I.g.I.I.& f.I. XI.I.D R.R.R.a.Y.Y.C.>.U.U.U.U.U.U.U.U.U.",
"U.U.U.U.U.U.U.U.oX* #XT.T.T.T.1 (.9 w.Y.!.Y.I I.I.I.I.I.I.I.I.I.I.I.I.I.I.j.I.I.&XR.D $ I.I.& R.R.R.- Y.Y., &.AXoXU.U.U.U.U.U.U.",
"T.T.T.T.T.T.T.T.T.T.T.T.T.T.T.cXY.].H Y.~.Y.1XI.I.I.I.I.I.I.I.I.I.I.I.I.I.I.I.I.R.R.d ' fX&XR.R.R.R...Y.Y.(.w b T.T.T.T.T.T.T.T.",
"T.T.T.T.T.T.T.T.T.T.T.T.T.T.+XY.Y.Y., Y.E.Y.Y.OX& & & & & & & & & & & & & . mX& R.R.  tX+.R.R.R.R.c 8.Y.Q.Y.C.w +XT.T.T.T.T.T.T.",
"T.T.T.T.T.T.T.T.T.T.T..Xj !.Y.Y.~.Y.Y.Y.E.Q.Y.H & R.R.R.R.R.R.R.R.R.R.  DX3 3 = ^ = VXE # R.R.R.&X2 W.KXY.Y., C.Y.!.j .XT.T.T.T.",
"Y.N.>X{.3XW.$X9 (.Y.Y.Y.Y.Y.Y.Y.Y.Y.Y.Q.E.E.^.Y.].D R.R.R.R.R.R.R.R.  %.; ; ; ; ; ; ; P.z GXR.P 4XW.W.CXY.Y.(.].Y.Y.Y.Y.Y.Y.Y.Y.",
"Y.Y.H $ K W.W.$.Y.Y.Y.Y.}.b XX2.#.}.Y.Y.Y.Q.!.Q.Y.Y.C...i =.=.=.=.2 N e e e e N N N +.# JXJ.J.W.W.W.2.C 6.Y.Y.(.Y.!.Q.Y.Y.Y.Y.Y.",
"E.Y.(.9 q.W.W.u Y.v %XC b.e.e.e.e.b.2.b sXY.Y.Y.a J ).).).).).).).{.3XW.W.W.W.W.W.W.W.W.W.W.W.W.W.2.*XH.| # u { Y.Y.^.~.E.E.E.E.",
"E.Q.Y.].4 W.W.u 1 9.hXkXhX8 8 8 8 8 8 8 uXo.NX.Xc.c.9.0.V V V : b 2 {.3XW.W.W.W.W.W.J.' ' ' ' ' ' 4.8X8XA M.PXA z %XY.Y.~.E.E.E.",
"E.E.Y.Y.u W.[.U.U.U.Z.x  .% % % % % % % % <.y U.U.U.U.U.U.U.U.U.* .X> 3XW.W.W.W.W.$ I.I.I.I.I.I.I.. ,X7 < Y S.3 ,X7 i Y.Y.~.E.E.",
"E.E.Y.}.$X1.U.U.U.U.O.<.A.,.,.,.,.,.,.,.G  .y U.U.U.U.U.U.U.U.U.O T.T.4 W.W.W.W.$ I.I.I.I.I.I.I.I.5Xg.D.*.I.z.g.lXlXB 2 Y.Q.E.E.",
"E.E.Y.Z W.( U.U.U.U.,.gX[ U.U.U.U.U.U.U.U.o.Z.U.U.U.U.U.U.U.U.U._.T.T.: W.K 3XW.9XI.I.I.I.I.I.I.I.n.- x.g I.I.D ` VXB / Y.^.E.E.",
"E./.Y.> W.X U.U.U.U._ y U.U.U.U.U.U.U.U.U.q dXU.U.U.U.U.U.U.U.O T.T.T.0.W.6 6 W.`.`.`.`.`.`.`.`.`.`.`.P V.`.OXR.R.d.B *.Y.^.E.E.",
"E./.Y.$.3X( * * * * q l * * * * * * * * * * o.* * * * * * O _.T.T.T.T.pXW.$ i K W R.R.R.R.R.R.R.R.R.R.R.7XR.R.R.R.m B :.Y.^.E.E.",
"E.E.Y.7.K b T.T.T.T.1.A.T.T.T.T.T.T.T.T.T.T.0.T.T.T.T.T.T.T.T.T.T.T.T.6.3Xp p ).s.&XR.R.R.R.R.R.R.R.R.R.d.R.R.R.R.= F | Y.Q.E.E.",
"E.E.Y.N.u LXV T.T.T.iX8 0.T.T.T.T.T.T.T.T.T.T.T.T.T.T.T.T.T.T.T.T.T.@ ~ K H 1X$ p H qX'.'.'.'.'.'.'.`.`.a.'.'.'.+ +.| e.v Y.E.E.",
"/./.Y.Y.w.W.W.S V pXvXUX) V V V @ @X@X@X@X@X@X@X@X@X@X@X@X@X@X@X@ ~.Y.> &.N.N.9 H Y.Y.Y.Y.Y.Y.Y.Y.Y.Y.Y.(.Y.Y.Y.Y.tXA | { Y././.",
"Y.Y.Y.Z r.W.W.W.K ).0 M.i =.=.).4 Y.Y.Y.Y.Y.Y.Y.Y.Y.Y.Y.Y.Y.Y.Y.Y.Y.Y.> $ Y.Y.].N.Y.Y.Y.Y.^.Q.Q.Q.Q.Q.Q.Y.Q.Q.Q.Y.i.! ! $.Y.Y.Y.",
"~.!.KX) LXW.>.) u 7.N.2X9 9 9 w {.v Y.Q.Q.Y.Y.}.%XC k.%XZ Y.Y.Y.Y.Y.Y.h p Y.Y.Y.Y.Y.$.>.{ Y.Y.Y.Q.E.E.E.E.E.E.Q.Y.Z i vXb.eX~.~.",
"U.* @.U.1.3Xq U.U.U.U.U.t j 2X9 >X$.Y.Q.Y.KXu b.e.e.A ;X:.e +.GXT T T U U T T T T } 7 M.:.s I Y.Y.^./.E.E.E.Q.Y.Q.Q t t.Z.O.U.U.",
"U.t O U.[.K t.U.U.U.U.U.U.O .XzX9 (.Y.Y.5.b.! ! A u.,X3 ,XF.< } I.I.I.I.I.I.I.I.I.- ] 3 7 < *.} a Y.Q.E.E.Q.Y.!.* U.U.U.O.G U.U.",
"U.U.t.U.xXeXU.U.U.U.U.U.U.t.T.1 (., Y.Y.eX! 0 i.F < S.3 3 3 7 } I.I.I.I.I.I.I.I.I.I.9X5X3 < < B -Xv Y.~.E.Y.Y.O U.U.U.U.,.<XU.U.",
"U.U.U.U.( X.U.U.U.U.U.U.U.t.T.T./.Y.Q.Y.0 0 }.o D.M.K.9X- W B.m.I.I.I.I.I.I.I.I.I.I.I.I.n.k < 3 lXyXY.Q.~.Y.+XU.U.U.U.U.<X[ U.U.",
"U.U.U.U.X c.U.U.U.U.U.U.U.* T.T.j Y.Y.Y.0 v Y.U n.k D I.I.I.m.M I.I.I.I.I.I.I.I.I.I.I.I.D F k B.lX. Y.^.!.Y.MXU.U.U.U.U._ X U.U.",
"U.U.U.U.U.@.U.U.U.U.U.U.U.O T.T.@XY.Y.5.v Y.Y.I.HX3.I.I.I.I.D n.I.I.I.I.I.I.I.I.I.I.I.I.I.g F DX^ %.Y.Y.Q.Y._.U.U.U.U.U.X U.U.U.",
"U.U.U.U.U.U.U.U.U.U.U.U.U.#XT.T.@XY.^.Y.Y.Y.Y. XI.. I.I.I.I.I.9XI.I.I.I.I.I.I.I.I.I.I.I.I.. B 7XR.^ $.Y.Q.Y._.U.U.U.U.U.U.U.U.U.",
"U.U.U.U.U.U.U.U.U.U.U.U.O T.T.T.j Y.Q.E.E.^.Y.U I.W I.I.I.I.I.I.I.I.I.I.I.I.I.I.I.I.I.I.`.d.B ` R.d }.Y.Q.Y.#XU.U.U.U.U.U.U.U.U.",
"U.U.U.U.U.U.U.U.U.U.U.O T.T.T.T.@ Y.!.E.E.!.Y.o OXd d 6Xc d d d d d d d d d d Y d d OX& R.^ 3 d.R.T Y.Y.Y.}.c.U.U.U.U.U.U.U.U.U.",
"O O O O O O O O O @.Q T.T.T.T.T.wXY.~.E.E./.Y.(.`.R.m B R   R.R.R.R.R.R.R.R.` = R.R.R.R.R.R.VX^ `.(.Y.KX>.W.>.@.O O O O O O O O ",
"T.T.T.T.T.T.T.T.T.T.T.T.T.T.T.@ Y.^.E.E.E.E.Q.Y.N.W 3 B B g.^   R.R.R.R.R.mXB = R.R.R.R.R.R.FX'.N.Y.Y.w W.W.3X: T.T.T.T.T.T.T.T.",
"T.T.T.T.T.T.T.T.T.T.T.T.T.T.+XY.Y.~.E.E.E.E.E.Y.Z i.M.7 F.F.F.F.7 u.e v.v.R F.m. X X X X XU ..Y.Y.Q.Y.w {.6 {.~ E.T.T.T.T.T.T.T.",
"@ @ @ @ @ @ @ @ @ @ @ @ +XQ.Y.Y.Q.E.E.E.E.E.E.Y.7.J 0 ! ! ! ! ! ! *Xe.e.;.N i.2 Y.Y.Y.Y.Y.Y.v Y.!./.Y.C.{.).=., Y.^.E.@ @ @ @ @ ",
"Y.Y.Y.Y.Y.Y.Y.Y.Y.Y.Y.Y.Y.Y.Q.~.E.E.E.E.E.E.E.Q.Y.Y.Y.Y.Y.5.5.5.a 4.e.| 0 Y.Y.Y.Y.Q.Q.Q.Q.Q.Y.Q.~./.Y.].9 p I ].Y.Y.Y.Y.Y.Y.Y.Y.",
"Q.Q.Q.Q.Q.Q.Q.Q.Q.Q.Q.Q.!./.E.E.E.E.E.E.E.E.E.E.E.~.!.Q.Y.Y.Y.Y.Y.C e.*Xw Y.Q.~./.E.E.E.Q.Y.Y.Y.Y.Y.Y.(.9 9 H Y.Q.~.!.Q.Q.Q.Q.Q."
};
